<svg id="test" data-name="logo" xmlns="http://www.w3.org/2000/svg" viewBox="0 0 1861.54 290.58"><defs><style>.cls-1{fill:#fff;}</style></defs><path class="cls-1" d="M29.54,637.26H196.79q36.51,0,36.51-15.13v-10.8q0-17.55-45.37-17.56h-66q-92.35,0-92.35-43.49V532.55q0-47.77,82.15-47.78H281.36v35.17H106.58q-29.53,0-29.53,16.26v7.73q0,14.67,39.2,14.67h67.38q97.73,0,97.73,48.16v18.58q0,47.08-88.87,47.09h-163Z" transform="translate(-29.54 -394.41)"/><path class="cls-1" d="M885.63,484.77,776.28,652l-22.13,33-22.57-32.69L621.8,484.77h49.55l82.8,129.93L835.2,484.77Z" transform="translate(-29.54 -394.41)"/><path class="cls-1" d="M1516,484V649.61a23.29,23.29,0,0,1-2.28,10.33,21.59,21.59,0,0,1-5.77,7.52,28.3,28.3,0,0,1-8.46,4.56,31.81,31.81,0,0,1-10.6,1.75A35.14,35.14,0,0,1,1478.3,672a36.12,36.12,0,0,1-10.34-5.23L1288.9,539.27V672.43h-47.51V506.78a19.74,19.74,0,0,1,2.4-9.53,23,23,0,0,1,6.32-7.38,27.73,27.73,0,0,1,8.72-4.43,36.85,36.85,0,0,1,10.74-1.47,38.59,38.59,0,0,1,11.14,1.74,32.13,32.13,0,0,1,10.34,5.24l177.72,124.83V484Z" transform="translate(-29.54 -394.41)"/><rect class="cls-1" x="904.05" y="167.88" width="251.28" height="34.69"/><rect class="cls-1" x="904.18" y="89.56" width="251.28" height="34.69"/><rect class="cls-1" x="904.18" y="243.33" width="251.28" height="34.69"/><rect class="cls-1" x="302.83" y="167.88" width="251.28" height="34.69"/><rect class="cls-1" x="302.96" y="89.56" width="251.28" height="34.69"/><rect class="cls-1" x="302.96" y="243.33" width="251.28" height="34.69"/><path class="cls-1" d="M1876.05,428.74l-108.71,98.5a14.88,14.88,0,0,1-18.91.88l-54.29-43.42,196.94,180.38h-61.7l-111.24-95.4-99.27,95.4h-53.51l122.17-118.72c4.73-4.59,21.69-5.25,27.17-1.57l71.62,57.33-98.11-95.06c-65.09-63.07-152.76-99.43-243.31-95.58-38.2,1.63-75.52,9.85-108.58,25.09l-7.68,3.54h0c50.36-36.54,113.5-48.49,174.65-45.17,72.61,3.93,142,31.18,200.56,74.31L1745.11,490l73.64-60.87Z" transform="translate(-29.54 -394.41)"/></svg>